<svg version="1.1" preserveAspectRatio="none" xmlns="http://www.w3.org/2000/svg" width="500" height="500" viewBox="0 0 500 500"><rect width="100%" height="100%" fill="#000000" fill-opacity="1"/><svg viewBox="622.7371 298.3738 268.5259 199.3663" width="417" height="309.6004783896079" x="41.5px" y="95.1998px" xmlns="http://www.w3.org/2000/svg" xmlns:xlink="http://www.w3.org/1999/xlink" preserveAspectRatio="none"><defs></defs><style>.a6izo4zJpcolor1094df68-a935-49ae-afbc-dbb95371d74e {fill:#FFFFFF;fill-opacity:1;}.a6izo4zJpstrokeColor-str1094df68-a935-49ae-afbc-dbb95371d74e {stroke:#D9D9D9;stroke-opacity:1;}.aD6z1nYkhcolor1094df68-a935-49ae-afbc-dbb95371d74e {fill:#FFFFFF;fill-opacity:1;}.aD6z1nYkhstrokeColor-str1094df68-a935-49ae-afbc-dbb95371d74e {stroke:#D9D9D9;stroke-opacity:1;}</style><g opacity="1" transform="rotate(0 703.6315 298.3738)">
<svg width="106.737" height="106.6534" x="703.6315" y="298.3738" version="1.1" preserveAspectRatio="none" viewBox="27 27.112791061401367 145.90151977539062 145.78721618652344">
  <g transform="matrix(1 0 0 1 0 0)"><g><path d="M159.8 124.9c-3.7 0-7.6 3.2-12.5 7.2-4.3 3.5-9.5 7.7-13.5 8.4-.1-2.3-1-4.3-2.4-6-5.1-5.8-16.4-5.4-23.8-5.2-1.2.1-2.2.1-3 .1-1.5 0-3.5-1.3-6.2-3-6.2-3.9-15.6-9.9-34.3-10.2-.3 0-.5.1-.8.1v-8.2c0-1.7-1.3-3-3-3H30c-1.7 0-3 1.3-3 3v54.2c0 1.7 1.3 3 3 3h30.2c1.7 0 3-1.3 3-3v-6.1c2.8.2 8.8 3.1 14.6 5.8 10.3 4.8 23.2 10.9 33.5 10.9 16.1 0 61.6-21.8 61.6-34.6.1-8.5-4.7-13.4-13.1-13.4zM57.2 159.4H33v-48.1h24.2v48.1zm54.2 7.7c-9 0-21.2-5.7-31-10.3-7.4-3.5-13.3-6.2-17.2-6.4v-28.2c.2.1.4.1.7.1 16.9.2 25.2 5.5 31.1 9.3 3.4 2.2 6.2 3.9 9.4 3.9.9 0 2-.1 3.2-.1 5.6-.2 15.8-.6 19.1 3.1.4.5 1 1.4 1 2.8H87.5c-1.7 0-3 1.3-3 3s1.3 3 3 3h42.3c.7 0 1.5-.3 2-.8 6.6.5 13.3-4.9 19.3-9.8 3-2.5 7.2-5.8 8.7-5.8 5 0 7.2 2.3 7.2 7.5 0 6.3-37.7 28.7-55.6 28.7zM106.2 91c4.8 0 8.8-3.9 8.8-8.8 0-4.8-4-8.8-8.8-8.8-4.8 0-8.8 3.9-8.8 8.8-.1 4.8 3.8 8.8 8.8 8.8zm0-14c2.9 0 5.3 2.3 5.3 5.3 0 2.9-2.3 5.3-5.3 5.3-2.9 0-5.3-2.3-5.3-5.3-.1-3 2.3-5.3 5.3-5.3zm-25.9 8.5h4.9c.6 3.9 2.3 7.4 4.8 10.3l-3.8 3.8c-.7.7-.7 1.8 0 2.5.4.4.8.5 1.2.5s.9-.1 1.2-.5l3.8-3.8c2.9 2.4 6.4 4.1 10.2 4.7v4.8c0 .9.5 1.8 1.5 1.8s1.5-.8 1.5-1.8v-4.5h.4c5.2 0 10-1.9 13.6-5l3.8 3.8c.4.4.8.5 1.2.5.4 0 .9-.1 1.2-.5.7-.7.7-1.8 0-2.5l-3.8-3.8c2.4-2.8 4.1-6.4 4.8-10.3h6.2c1 0 1.8-.5 1.8-1.5 0-.9-.8-1.5-1.8-1.5h-5.9v-.3c0-5.2-1.9-9.9-5-13.6l3.8-3.8c.7-.7.7-1.8 0-2.5s-1.8-.7-2.5 0l-3.8 3.8c-3.7-3.1-8.4-5-13.6-5h-.4V55c0-.9-.5-1.8-1.5-1.8s-1.5.8-1.5 1.8v6.4c-3.8.7-7.3 2.3-10.2 4.7l-3.8-3.8c-.7-.7-1.8-.7-2.5 0s-.7 1.8 0 2.5l3.8 3.8c-3.2 3.7-5 8.4-5 13.6v.3h-4.6c-1 0-1.8.5-1.8 1.5.1 1 .8 1.5 1.8 1.5zm25.9-20.8c9.8 0 17.7 7.9 17.7 17.5 0 9.7-7.9 17.6-17.7 17.6s-17.6-7.9-17.6-17.6c-.1-9.7 7.8-17.5 17.6-17.5zm32.1-11.4c1 .5 2 .7 3.1.7 2.6 0 5.1-1.5 6.2-3.8 1.7-3.4.3-7.6-3.1-9.3-1-.5-2-.7-3.1-.7-2.6 0-5.1 1.5-6.2 3.8-1.7 3.4-.3 7.6 3.1 9.3zm.1-7.7c.6-1.2 1.8-1.9 3.1-1.9.5 0 1 .1 1.5.4 1.7.8 2.3 2.8 1.5 4.5-.8 1.6-2.9 2.3-4.5 1.5-1.8-.8-2.5-2.9-1.6-4.5zM123 55c.2 0 .4 0 .6-.1l3.4-1.1c1.2 2.8 3.2 5 5.8 6.6v.1l-1.6 3.1c-.4.9-.1 1.9.8 2.3.2.1.5.2.8.2.7 0 1.2-.4 1.6-.9l1.5-3.1c1.8.7 3.6 1 5.5 1 1.2 0 2.3-.1 3.4-.4l1.1 3.4c.2.7 1 1.2 1.7 1.2.2 0 .4 0 .6-.1 1-.3 1.4-1.3 1.1-2.2l-1.1-3.3c2.7-1.2 5.1-3.2 6.7-5.8l3.2 1.5c.2.1.5.2.8.2.7 0 1.2-.4 1.6-.9.4-.9.1-1.9-.8-2.3l-3.2-1.5h-.1c1-2.8 1.2-5.8.7-8.8l3.4-1.1c1-.3 1.4-1.3 1.1-2.2-.3-.9-1.3-1.4-2.2-1.1l-3.4 1.1c-1.2-2.8-3.2-5-5.8-6.6l.1-.1 1.6-3.1c.4-.9.1-1.9-.8-2.3s-1.9-.1-2.3.8l-1.8 2.8c-1.8-.7-3.6-1-5.5-1-1.2 0-2.3.1-3.4.4l-1.1-3.4c-.3-.9-1.3-1.4-2.2-1.1-1 .3-1.4 1.3-1.1 2.2l1.1 3.3c-2.7 1.2-5.1 3.2-6.7 5.8l-3.2-1.5c-.9-.4-1.9-.1-2.3.8-.4.9-.1 1.9.8 2.3l3 1.6h.1c-1 2.8-1.2 5.8-.7 8.8l-3.4 1.1c-1 .3-1.4 1.3-1.1 2.2.3.7.9 1.2 1.7 1.2zm7.3-13.5c2.1-4.2 6.4-6.9 11.2-6.9 1.9 0 3.8.4 5.6 1.3 3 1.5 5.2 4 6.2 7.2s.8 6.5-.7 9.5c-2.1 4.2-6.4 6.9-11.2 6.9-1.9 0-3.8-.4-5.6-1.3-3-1.5-5.2-4-6.2-7.2-1.1-3.1-.8-6.5.7-9.5z" data-color="1" style="fill:#FFFFFF;fill-opacity:1;"></path></g></g>
</svg>
</g><g opacity="1" transform="rotate(0 622.7371 481.0966)">
<svg width="268.5259" height="16.6435" x="622.7371" y="481.0966" version="1.1" preserveAspectRatio="none" viewBox="1.88 -29.88 610.4 37.84">
  <g transform="matrix(1 0 0 1 0 0)" class="a6izo4zJpcolor1094df68-a935-49ae-afbc-dbb95371d74e"><path id="id-1094df68-a935-49ae-afbc-dbb95371d74e6izo4zJp26" d="M12.28 0.24Q9.16 0.24 6.30-0.76Q3.44-1.76 1.88-3.40L1.88-3.40L3.04-5.68Q4.56-4.16 7.08-3.22Q9.60-2.28 12.28-2.28L12.28-2.28Q16.04-2.28 17.92-3.66Q19.80-5.04 19.80-7.24L19.80-7.24Q19.80-8.92 18.78-9.92Q17.76-10.92 16.28-11.46Q14.80-12 12.16-12.64L12.16-12.64Q9-13.44 7.12-14.18Q5.24-14.92 3.90-16.44Q2.56-17.96 2.56-20.56L2.56-20.56Q2.56-22.68 3.68-24.42Q4.80-26.16 7.12-27.20Q9.44-28.24 12.88-28.24L12.88-28.24Q15.28-28.24 17.58-27.58Q19.88-26.92 21.56-25.76L21.56-25.76L20.56-23.40Q18.80-24.56 16.80-25.14Q14.80-25.72 12.88-25.72L12.88-25.72Q9.20-25.72 7.34-24.30Q5.48-22.88 5.48-20.64L5.48-20.64Q5.48-18.96 6.50-17.94Q7.52-16.92 9.06-16.38Q10.60-15.84 13.20-15.20L13.20-15.20Q16.28-14.44 18.18-13.70Q20.08-12.96 21.40-11.46Q22.72-9.96 22.72-7.40L22.72-7.40Q22.72-5.28 21.58-3.54Q20.44-1.80 18.08-0.78Q15.72 0.24 12.28 0.24L12.28 0.24Z M31.76 0L31.76-21.04L34.60-21.04L34.60 0L31.76 0ZM33.20-25.64Q32.32-25.64 31.72-26.24Q31.12-26.84 31.12-27.68L31.12-27.68Q31.12-28.48 31.72-29.08Q32.32-29.68 33.20-29.68L33.20-29.68Q34.08-29.68 34.68-29.10Q35.28-28.52 35.28-27.72L35.28-27.72Q35.28-26.84 34.68-26.24Q34.08-25.64 33.20-25.64L33.20-25.64Z M71.96-21.20Q75.92-21.20 78.18-18.92Q80.44-16.64 80.44-12.20L80.44-12.20L80.44 0L77.60 0L77.60-11.92Q77.60-15.20 76.02-16.92Q74.44-18.64 71.56-18.64L71.56-18.64Q68.28-18.64 66.40-16.62Q64.52-14.60 64.52-11.04L64.52-11.04L64.52 0L61.68 0L61.68-11.92Q61.68-15.20 60.10-16.92Q58.52-18.64 55.60-18.64L55.60-18.64Q52.36-18.64 50.46-16.62Q48.56-14.60 48.56-11.04L48.56-11.04L48.56 0L45.72 0L45.72-21.04L48.44-21.04L48.44-17.20Q49.56-19.12 51.56-20.16Q53.56-21.20 56.16-21.20L56.16-21.20Q58.80-21.20 60.74-20.08Q62.68-18.96 63.64-16.76L63.64-16.76Q64.80-18.84 66.98-20.02Q69.16-21.20 71.96-21.20L71.96-21.20Z M102.20-21.20Q105.16-21.20 107.56-19.86Q109.96-18.52 111.32-16.08Q112.68-13.64 112.68-10.52L112.68-10.52Q112.68-7.36 111.32-4.92Q109.96-2.48 107.58-1.14Q105.20 0.20 102.20 0.20L102.20 0.20Q99.64 0.20 97.58-0.86Q95.52-1.92 94.20-3.96L94.20-3.96L94.20 7.76L91.36 7.76L91.36-21.04L94.08-21.04L94.08-16.88Q95.36-18.96 97.46-20.08Q99.56-21.20 102.20-21.20L102.20-21.20ZM102-2.32Q104.20-2.32 106-3.34Q107.80-4.36 108.82-6.24Q109.84-8.12 109.84-10.52L109.84-10.52Q109.84-12.92 108.82-14.78Q107.80-16.64 106-17.68Q104.20-18.72 102-18.72L102-18.72Q99.76-18.72 97.98-17.68Q96.20-16.64 95.18-14.78Q94.16-12.92 94.16-10.52L94.16-10.52Q94.16-8.12 95.18-6.24Q96.20-4.36 97.98-3.34Q99.76-2.32 102-2.32L102-2.32Z M121.68 0L121.68-29.68L124.52-29.68L124.52 0L121.68 0Z M135.64 0L135.64-21.04L138.48-21.04L138.48 0L135.64 0ZM137.08-25.64Q136.20-25.64 135.60-26.24Q135-26.84 135-27.68L135-27.68Q135-28.48 135.60-29.08Q136.20-29.68 137.08-29.68L137.08-29.68Q137.96-29.68 138.56-29.10Q139.16-28.52 139.16-27.72L139.16-27.72Q139.16-26.84 138.56-26.24Q137.96-25.64 137.08-25.64L137.08-25.64Z M156.56-27.48Q154.72-27.48 153.78-26.48Q152.84-25.48 152.84-23.52L152.84-23.52L152.84-21.04L159.32-21.04L159.32-18.64L152.92-18.64L152.92 0L150.08 0L150.08-18.64L146.32-18.64L146.32-21.04L150.08-21.04L150.08-23.64Q150.08-26.52 151.74-28.20Q153.40-29.88 156.44-29.88L156.44-29.88Q157.64-29.88 158.76-29.54Q159.88-29.20 160.64-28.56L160.64-28.56L159.68-26.44Q158.44-27.48 156.56-27.48L156.56-27.48Z M169.56 0L169.56-21.04L172.40-21.04L172.40 0L169.56 0ZM171.00-25.64Q170.12-25.64 169.52-26.24Q168.92-26.84 168.92-27.68L168.92-27.68Q168.92-28.48 169.52-29.08Q170.12-29.68 171.00-29.68L171.00-29.68Q171.88-29.68 172.48-29.10Q173.08-28.52 173.08-27.72L173.08-27.72Q173.08-26.84 172.48-26.24Q171.88-25.64 171.00-25.64L171.00-25.64Z M192.24 0.20Q189.12 0.20 186.66-1.16Q184.20-2.52 182.80-4.98Q181.40-7.44 181.40-10.52L181.40-10.52Q181.40-13.60 182.80-16.04Q184.20-18.48 186.66-19.84Q189.12-21.20 192.24-21.20L192.24-21.20Q194.96-21.20 197.10-20.14Q199.24-19.08 200.48-17.04L200.48-17.04L198.36-15.60Q197.32-17.16 195.72-17.94Q194.12-18.72 192.24-18.72L192.24-18.72Q189.96-18.72 188.14-17.70Q186.32-16.68 185.30-14.80Q184.28-12.92 184.28-10.52L184.28-10.52Q184.28-8.08 185.30-6.22Q186.32-4.36 188.14-3.34Q189.96-2.32 192.24-2.32L192.24-2.32Q194.12-2.32 195.72-3.08Q197.32-3.84 198.36-5.40L198.36-5.40L200.48-3.96Q199.24-1.92 197.08-0.86Q194.92 0.20 192.24 0.20L192.24 0.20Z M216.60-21.20Q220.72-21.20 222.92-19.14Q225.12-17.08 225.12-13.04L225.12-13.04L225.12 0L222.40 0L222.40-3.28Q221.44-1.64 219.58-0.72Q217.72 0.20 215.16 0.20L215.16 0.20Q211.64 0.20 209.56-1.48Q207.48-3.16 207.48-5.92L207.48-5.92Q207.48-8.60 209.42-10.24Q211.36-11.88 215.60-11.88L215.60-11.88L222.28-11.88L222.28-13.16Q222.28-15.88 220.76-17.30Q219.24-18.72 216.32-18.72L216.32-18.72Q214.32-18.72 212.48-18.06Q210.64-17.40 209.32-16.24L209.32-16.24L208.04-18.36Q209.64-19.72 211.88-20.46Q214.12-21.20 216.60-21.20L216.60-21.20ZM215.60-2.04Q218.00-2.04 219.72-3.14Q221.44-4.24 222.28-6.32L222.28-6.32L222.28-9.76L215.68-9.76Q210.28-9.76 210.28-6L210.28-6Q210.28-4.16 211.68-3.10Q213.08-2.04 215.60-2.04L215.60-2.04Z M246.76-21.20Q250.72-21.20 253.06-18.90Q255.40-16.60 255.40-12.20L255.40-12.20L255.40 0L252.56 0L252.56-11.92Q252.56-15.20 250.92-16.92Q249.28-18.64 246.24-18.64L246.24-18.64Q242.84-18.64 240.86-16.62Q238.88-14.60 238.88-11.04L238.88-11.04L238.88 0L236.04 0L236.04-21.04L238.76-21.04L238.76-17.16Q239.92-19.08 241.98-20.14Q244.04-21.20 246.76-21.20L246.76-21.20Z M282.76-29.68L285.60-29.68L285.60 0L282.88 0L282.88-4.16Q281.60-2.04 279.50-0.92Q277.40 0.20 274.76 0.20L274.76 0.20Q271.80 0.20 269.40-1.16Q267.00-2.52 265.64-4.96Q264.28-7.40 264.28-10.52L264.28-10.52Q264.28-13.64 265.64-16.08Q267.00-18.52 269.40-19.86Q271.80-21.20 274.76-21.20L274.76-21.20Q277.32-21.20 279.38-20.14Q281.44-19.08 282.76-17.04L282.76-17.04L282.76-29.68ZM275.00-2.32Q277.20-2.32 278.98-3.34Q280.76-4.36 281.78-6.24Q282.80-8.12 282.80-10.52L282.80-10.52Q282.80-12.92 281.78-14.80Q280.76-16.68 278.98-17.70Q277.20-18.72 275.00-18.72L275.00-18.72Q272.76-18.72 270.98-17.70Q269.20-16.68 268.18-14.80Q267.16-12.92 267.16-10.52L267.16-10.52Q267.16-8.12 268.18-6.24Q269.20-4.36 270.98-3.34Q272.76-2.32 275.00-2.32L275.00-2.32Z M305.32 0.20Q302.28 0.20 299.84-1.18Q297.40-2.56 296.00-5Q294.60-7.44 294.60-10.52L294.60-10.52Q294.60-13.60 296.00-16.04Q297.40-18.48 299.84-19.84Q302.28-21.20 305.32-21.20L305.32-21.20Q308.36-21.20 310.80-19.84Q313.24-18.48 314.62-16.04Q316.00-13.60 316.00-10.52L316.00-10.52Q316.00-7.44 314.62-5Q313.24-2.56 310.80-1.18Q308.36 0.20 305.32 0.20L305.32 0.20ZM305.32-2.32Q307.56-2.32 309.34-3.34Q311.12-4.36 312.12-6.24Q313.12-8.12 313.12-10.52L313.12-10.52Q313.12-12.92 312.12-14.80Q311.12-16.68 309.34-17.70Q307.56-18.72 305.32-18.72L305.32-18.72Q303.08-18.72 301.30-17.70Q299.52-16.68 298.50-14.80Q297.48-12.92 297.48-10.52L297.48-10.52Q297.48-8.12 298.50-6.24Q299.52-4.36 301.30-3.34Q303.08-2.32 305.32-2.32L305.32-2.32Z M346.04-21.20Q350.16-21.20 352.36-19.14Q354.56-17.08 354.56-13.04L354.56-13.04L354.56 0L351.84 0L351.84-3.28Q350.88-1.64 349.02-0.72Q347.16 0.20 344.60 0.20L344.60 0.20Q341.08 0.20 339.00-1.48Q336.92-3.16 336.92-5.92L336.92-5.92Q336.92-8.60 338.86-10.24Q340.80-11.88 345.04-11.88L345.04-11.88L351.72-11.88L351.72-13.16Q351.72-15.88 350.20-17.30Q348.68-18.72 345.76-18.72L345.76-18.72Q343.76-18.72 341.92-18.06Q340.08-17.40 338.76-16.24L338.76-16.24L337.48-18.36Q339.08-19.72 341.32-20.46Q343.56-21.20 346.04-21.20L346.04-21.20ZM345.04-2.04Q347.44-2.04 349.16-3.14Q350.88-4.24 351.72-6.32L351.72-6.32L351.72-9.76L345.12-9.76Q339.72-9.76 339.72-6L339.72-6Q339.72-4.16 341.12-3.10Q342.52-2.04 345.04-2.04L345.04-2.04Z M389.24-3.32L390.24-1.28Q389.44-0.56 388.26-0.18Q387.08 0.20 385.80 0.20L385.80 0.20Q382.84 0.20 381.24-1.40Q379.64-3 379.64-5.92L379.64-5.92L379.64-18.64L375.88-18.64L375.88-21.04L379.64-21.04L379.64-25.64L382.48-25.64L382.48-21.04L388.88-21.04L388.88-18.64L382.48-18.64L382.48-6.08Q382.48-4.20 383.42-3.22Q384.36-2.24 386.12-2.24L386.12-2.24Q387.00-2.24 387.82-2.52Q388.64-2.80 389.24-3.32L389.24-3.32Z M416.20-10.52L416.16-9.64L398.56-9.64Q398.80-6.36 401.08-4.34Q403.36-2.32 406.84-2.32L406.84-2.32Q408.80-2.32 410.44-3.02Q412.08-3.72 413.28-5.08L413.28-5.08L414.88-3.24Q413.48-1.56 411.38-0.68Q409.28 0.20 406.76 0.20L406.76 0.20Q403.52 0.20 401.02-1.18Q398.52-2.56 397.12-5Q395.72-7.44 395.72-10.52L395.72-10.52Q395.72-13.60 397.06-16.04Q398.40-18.48 400.74-19.84Q403.08-21.20 406.00-21.20L406.00-21.20Q408.92-21.20 411.24-19.84Q413.56-18.48 414.88-16.06Q416.20-13.64 416.20-10.52L416.20-10.52ZM406.00-18.76Q402.96-18.76 400.90-16.82Q398.84-14.88 398.56-11.76L398.56-11.76L413.48-11.76Q413.20-14.88 411.14-16.82Q409.08-18.76 406.00-18.76L406.00-18.76Z M433.92 0.20Q430.80 0.20 428.34-1.16Q425.88-2.52 424.48-4.98Q423.08-7.44 423.08-10.52L423.08-10.52Q423.08-13.60 424.48-16.04Q425.88-18.48 428.34-19.84Q430.80-21.20 433.92-21.20L433.92-21.20Q436.64-21.20 438.78-20.14Q440.92-19.08 442.16-17.04L442.16-17.04L440.04-15.60Q439.00-17.16 437.40-17.94Q435.80-18.72 433.92-18.72L433.92-18.72Q431.64-18.72 429.82-17.70Q428.00-16.68 426.98-14.80Q425.96-12.92 425.96-10.52L425.96-10.52Q425.96-8.08 426.98-6.22Q428.00-4.36 429.82-3.34Q431.64-2.32 433.92-2.32L433.92-2.32Q435.80-2.32 437.40-3.08Q439.00-3.84 440.04-5.40L440.04-5.40L442.16-3.96Q440.92-1.92 438.76-0.86Q436.60 0.20 433.92 0.20L433.92 0.20Z M461.64-21.20Q465.60-21.20 467.94-18.90Q470.28-16.60 470.28-12.20L470.28-12.20L470.28 0L467.44 0L467.44-11.92Q467.44-15.20 465.80-16.92Q464.16-18.64 461.12-18.64L461.12-18.64Q457.72-18.64 455.74-16.62Q453.76-14.60 453.76-11.04L453.76-11.04L453.76 0L450.92 0L450.92-21.04L453.64-21.04L453.64-17.16Q454.80-19.08 456.86-20.14Q458.92-21.20 461.64-21.20L461.64-21.20Z M489.88 0.20Q486.84 0.20 484.40-1.18Q481.96-2.56 480.56-5Q479.16-7.44 479.16-10.52L479.16-10.52Q479.16-13.60 480.56-16.04Q481.96-18.48 484.40-19.84Q486.84-21.20 489.88-21.20L489.88-21.20Q492.92-21.20 495.36-19.84Q497.80-18.48 499.18-16.04Q500.56-13.60 500.56-10.52L500.56-10.52Q500.56-7.44 499.18-5Q497.80-2.56 495.36-1.18Q492.92 0.20 489.88 0.20L489.88 0.20ZM489.88-2.32Q492.12-2.32 493.90-3.34Q495.68-4.36 496.68-6.24Q497.68-8.12 497.68-10.52L497.68-10.52Q497.68-12.92 496.68-14.80Q495.68-16.68 493.90-17.70Q492.12-18.72 489.88-18.72L489.88-18.72Q487.64-18.72 485.86-17.70Q484.08-16.68 483.06-14.80Q482.04-12.92 482.04-10.52L482.04-10.52Q482.04-8.12 483.06-6.24Q484.08-4.36 485.86-3.34Q487.64-2.32 489.88-2.32L489.88-2.32Z M509.56 0L509.56-29.68L512.40-29.68L512.40 0L509.56 0Z M532.12 0.20Q529.08 0.20 526.64-1.18Q524.20-2.56 522.80-5Q521.40-7.44 521.40-10.52L521.40-10.52Q521.40-13.60 522.80-16.04Q524.20-18.48 526.64-19.84Q529.08-21.20 532.12-21.20L532.12-21.20Q535.16-21.20 537.60-19.84Q540.04-18.48 541.42-16.04Q542.80-13.60 542.80-10.52L542.80-10.52Q542.80-7.44 541.42-5Q540.04-2.56 537.60-1.18Q535.16 0.20 532.12 0.20L532.12 0.20ZM532.12-2.32Q534.36-2.32 536.14-3.34Q537.92-4.36 538.92-6.24Q539.92-8.12 539.92-10.52L539.92-10.52Q539.92-12.92 538.92-14.80Q537.92-16.68 536.14-17.70Q534.36-18.72 532.12-18.72L532.12-18.72Q529.88-18.72 528.10-17.70Q526.32-16.68 525.30-14.80Q524.28-12.92 524.28-10.52L524.28-10.52Q524.28-8.12 525.30-6.24Q526.32-4.36 528.10-3.34Q529.88-2.32 532.12-2.32L532.12-2.32Z M568.56-21.04L571.28-21.04L571.28-2.56Q571.28 2.80 568.66 5.38Q566.04 7.96 560.76 7.96L560.76 7.96Q557.84 7.96 555.22 7.10Q552.60 6.24 550.96 4.72L550.96 4.72L552.40 2.56Q553.92 3.92 556.10 4.68Q558.28 5.44 560.68 5.44L560.68 5.44Q564.68 5.44 566.56 3.58Q568.44 1.72 568.44-2.20L568.44-2.20L568.44-4.88Q567.12-2.88 564.98-1.84Q562.84-0.80 560.24-0.80L560.24-0.80Q557.28-0.80 554.86-2.10Q552.44-3.40 551.06-5.74Q549.68-8.08 549.68-11.04L549.68-11.04Q549.68-14 551.06-16.32Q552.44-18.64 554.84-19.92Q557.24-21.20 560.24-21.20L560.24-21.20Q562.92-21.20 565.08-20.12Q567.24-19.04 568.56-17L568.56-17L568.56-21.04ZM560.52-3.32Q562.80-3.32 564.64-4.30Q566.48-5.28 567.50-7.04Q568.52-8.80 568.52-11.04L568.52-11.04Q568.52-13.28 567.50-15.02Q566.48-16.76 564.66-17.74Q562.84-18.72 560.52-18.72L560.52-18.72Q558.24-18.72 556.42-17.76Q554.60-16.80 553.58-15.04Q552.56-13.28 552.56-11.04L552.56-11.04Q552.56-8.80 553.58-7.04Q554.60-5.28 556.42-4.30Q558.24-3.32 560.52-3.32L560.52-3.32Z M582.44 0L582.44-21.04L585.28-21.04L585.28 0L582.44 0ZM583.88-25.64Q583-25.64 582.40-26.24Q581.80-26.84 581.80-27.68L581.80-27.68Q581.80-28.48 582.40-29.08Q583-29.68 583.88-29.68L583.88-29.68Q584.76-29.68 585.36-29.10Q585.96-28.52 585.96-27.72L585.96-27.72Q585.96-26.84 585.36-26.24Q584.76-25.64 583.88-25.64L583.88-25.64Z M603.76-21.20Q607.88-21.20 610.08-19.14Q612.28-17.08 612.28-13.04L612.28-13.04L612.28 0L609.56 0L609.56-3.28Q608.60-1.64 606.74-0.72Q604.88 0.20 602.32 0.20L602.32 0.20Q598.80 0.20 596.72-1.48Q594.64-3.16 594.64-5.92L594.64-5.92Q594.64-8.60 596.58-10.24Q598.52-11.88 602.76-11.88L602.76-11.88L609.44-11.88L609.44-13.16Q609.44-15.88 607.92-17.30Q606.40-18.72 603.48-18.72L603.48-18.72Q601.48-18.72 599.64-18.06Q597.80-17.40 596.48-16.24L596.48-16.24L595.20-18.36Q596.80-19.72 599.04-20.46Q601.28-21.20 603.76-21.20L603.76-21.20ZM602.76-2.04Q605.16-2.04 606.88-3.14Q608.60-4.24 609.44-6.32L609.44-6.32L609.44-9.76L602.84-9.76Q597.44-9.76 597.44-6L597.44-6Q597.44-4.16 598.84-3.10Q600.24-2.04 602.76-2.04L602.76-2.04Z"/></g>
</svg>
</g><g opacity="1" transform="rotate(0 622.7371 429.3036)">
<svg width="268.5259" height="42.2478" x="622.7371" y="429.3036" version="1.1" preserveAspectRatio="none" viewBox="2.207 -30.1562 195.0227 30.6836">
  <g transform="matrix(1 0 0 1 0 0)" class="aD6z1nYkhcolor1094df68-a935-49ae-afbc-dbb95371d74e"><path id="id-1094df68-a935-49ae-afbc-dbb95371d74eD6z1nYkh7" d="M2.21-24.24L2.21-29.61L15.88-29.61Q18.16-29.61 20.08-28.90Q21.99-28.18 23.38-26.97Q24.77-25.76 25.55-24.18Q26.33-22.60 26.33-20.88L26.33-20.88Q26.33-18.81 25.71-17.00Q25.10-15.20 23.81-13.87Q22.52-12.54 20.55-11.77Q18.57-11.00 15.88-11.00L15.88-11.00L11.76-11.00L11.76-5.35L14.47-5.35L14.47 0L2.21 0L2.21-5.35L5.27-5.35L5.27-24.24L2.21-24.24ZM14.43-24.24L11.76-24.24L11.76-16.29L14.43-16.29Q16.66-16.29 17.97-17.23Q19.28-18.16 19.28-20.20L19.28-20.20Q19.28-22.09 18.05-23.16Q16.82-24.24 14.43-24.24L14.43-24.24Z M32.35-23.67L32.35-29.61L55.26-29.61L55.26-19.51L48.91-19.51L48.91-23.67L41.90-23.67L41.90-17.44L47.98-17.44L47.98-11.76L41.90-11.76L41.90-5.35L45.03-5.35L45.03 0L32.35 0L32.35-5.35L35.42-5.35L35.42-23.67L32.35-23.67Z M76.15 0L76.15-5.35L79.22-5.35L79.22-24.43L75.63-24.43L75.63-20.61L69.26-20.61L69.26-29.61L96.19-29.61L96.19-20.61L89.79-20.61L89.79-24.43L85.70-24.43L85.70-5.35L88.83-5.35L88.83 0L76.15 0Z M101.81-23.71L101.81-29.61L125.36-29.61L125.36-19.51L118.99-19.51L118.99-23.71L111.40-23.71L111.40-17.87L117.27-17.87L117.27-12.21L111.40-12.21L111.40-5.35L118.99-5.35L118.99-10.61L125.36-10.61L125.36 0L101.81 0L101.81-5.35L104.91-5.35L104.91-23.71L101.81-23.71Z M156.99-20.61L150.95-20.61Q149.86-22.17 148.98-22.82Q148.10-23.48 147.09-23.76Q146.07-24.04 144.96-24.04L144.96-24.04Q143.32-24.04 141.91-23.31Q140.50-22.58 139.48-21.32Q138.45-20.06 137.87-18.39Q137.28-16.72 137.28-14.84L137.28-14.84Q137.28-12.95 137.86-11.28Q138.43-9.61 139.45-8.36Q140.46-7.11 141.87-6.38Q143.28-5.64 144.96-5.64L144.96-5.64Q146.13-5.64 147.14-6.03Q148.16-6.41 148.99-7.03Q149.82-7.66 150.45-8.47Q151.07-9.28 151.42-10.16L151.42-10.16L157.71-8.40Q157.11-6.48 155.93-4.85Q154.76-3.22 153.11-2.03Q151.46-0.84 149.40-0.16Q147.34 0.53 144.96 0.53L144.96 0.53Q142.95 0.53 141.11-0.02Q139.27-0.57 137.68-1.56Q136.09-2.56 134.79-3.96Q133.49-5.37 132.57-7.08Q131.66-8.79 131.15-10.75Q130.64-12.71 130.64-14.84L130.64-14.84Q130.64-18.03 131.75-20.81Q132.87-23.59 134.80-25.67Q136.73-27.75 139.34-28.96Q141.95-30.16 144.96-30.16L144.96-30.16Q147.36-30.16 149-29.56Q150.64-28.96 152.61-27.21L152.61-27.21L156.99-27.21L156.99-20.61Z M184.53-24.24L184.53-29.61L197.23-29.61L197.23-24.24L194.10-24.24L194.10-5.35L197.23-5.35L197.23 0L184.53 0L184.53-5.35L187.62-5.35L187.62-12.93L174.26-12.93L174.26-5.35L177.39-5.35L177.39 0L164.71 0L164.71-5.35L167.78-5.35L167.78-24.24L164.71-24.24L164.71-29.61L177.39-29.61L177.39-24.24L174.26-24.24L174.26-18.09L187.62-18.09L187.62-24.24L184.53-24.24Z"/></g>
</svg>
</g></svg></svg>